<svg width="45" height="45" viewBox="0 0 45 45" fill="none" xmlns="http://www.w3.org/2000/svg">
<circle cx="22.5" cy="22.5" r="22" stroke="#C4C4C4"/>
<path d="M28.1115 16.5316L22.9369 21.7063L17.7621 16.5315C17.4051 16.1745 16.8255 16.1745 16.4684 16.5316C16.1114 16.8886 16.1114 17.4682 16.4684 17.8252L21.6432 23L16.4684 28.1748C16.1114 28.5318 16.1114 29.1114 16.4684 29.4684C16.8255 29.8255 17.4051 29.8255 17.7621 29.4685L22.9369 24.2937L28.1115 29.4684C28.4686 29.8255 29.0483 29.8255 29.4053 29.4685C29.7624 29.1114 29.7624 28.5318 29.4053 28.1747L24.2306 23L29.4053 17.8253C29.7624 17.4682 29.7624 16.8886 29.4053 16.5315C29.0483 16.1745 28.4686 16.1745 28.1115 16.5316Z" fill="#BEBEBE"/>
</svg>
