<svg width="16" height="16" viewBox="0 0 16 16" fill="none" xmlns="http://www.w3.org/2000/svg">
<path d="M4.66667 0.5C2.36523 0.5 0.5 2.36523 0.5 4.66667V11.3333C0.5 13.6348 2.36523 15.5 4.66667 15.5H11.3333C13.6348 15.5 15.5 13.6348 15.5 11.3333V4.66667C15.5 2.36523 13.6348 0.5 11.3333 0.5H4.66667ZM13 2.16667C13.459 2.16667 13.8333 2.54102 13.8333 3C13.8333 3.45898 13.459 3.83333 13 3.83333C12.541 3.83333 12.1667 3.45898 12.1667 3C12.1667 2.54102 12.541 2.16667 13 2.16667ZM8 3.83333C10.3014 3.83333 12.1667 5.69857 12.1667 8C12.1667 10.3014 10.3014 12.1667 8 12.1667C5.69857 12.1667 3.83333 10.3014 3.83333 8C3.83333 5.69857 5.69857 3.83333 8 3.83333ZM8 5.5C6.61979 5.5 5.5 6.61979 5.5 8C5.5 9.38021 6.61979 10.5 8 10.5C9.38021 10.5 10.5 9.38021 10.5 8C10.5 6.61979 9.38021 5.5 8 5.5Z" fill="white"/>
</svg>
