<svg width="18" height="13" viewBox="0 0 18 13" fill="none" xmlns="http://www.w3.org/2000/svg">
<path d="M17.2984 1.06582C16.6487 0.308796 15.449 0 13.1581 0H4.84177C2.49834 0 1.27841 0.328715 0.631104 1.13468C0 1.9205 0 3.07834 0 4.68083V7.73516C0 10.8397 0.7488 12.4159 4.84177 12.4159H13.1581C15.1448 12.4159 16.2458 12.1435 16.958 11.4754C17.6884 10.7903 18 9.67172 18 7.73516V4.68083C18 2.99087 17.9512 1.8262 17.2984 1.06582ZM11.5561 6.62967L7.77966 8.56411C7.69524 8.60736 7.60291 8.62882 7.5107 8.62882C7.4063 8.62882 7.30214 8.60127 7.20987 8.54653C7.03614 8.44335 6.93006 8.25879 6.93006 8.05971V4.20323C6.93006 4.0045 7.03585 3.82011 7.20924 3.71688C7.38267 3.61365 7.59838 3.60659 7.77832 3.69821L11.5548 5.62019C11.7469 5.71797 11.8675 5.91237 11.8678 6.12448C11.8681 6.33676 11.7479 6.53144 11.5561 6.62967Z" fill="#F8F8FA"/>
</svg>
