<svg width="65" height="45" viewBox="0 0 65 45" fill="none" xmlns="http://www.w3.org/2000/svg">
<path d="M30.1855 44H0.947266V38.1992L14.7461 23.4922C16.6406 21.4219 18.0371 19.6152 18.9355 18.0723C19.8535 16.5293 20.3125 15.0645 20.3125 13.6777C20.3125 11.7832 19.834 10.2988 18.877 9.22461C17.9199 8.13086 16.5527 7.58398 14.7754 7.58398C12.8613 7.58398 11.3477 8.24805 10.2344 9.57617C9.14062 10.8848 8.59375 12.6133 8.59375 14.7617H0.0976562C0.0976562 12.1641 0.712891 9.79102 1.94336 7.64258C3.19336 5.49414 4.95117 3.81445 7.2168 2.60352C9.48242 1.37305 12.0508 0.757812 14.9219 0.757812C19.3164 0.757812 22.7246 1.8125 25.1465 3.92188C27.5879 6.03125 28.8086 9.00977 28.8086 12.8574C28.8086 14.9668 28.2617 17.1152 27.168 19.3027C26.0742 21.4902 24.1992 24.0391 21.543 26.9492L11.8457 37.1738H30.1855V44ZM63.2031 12.6816C63.2031 14.752 62.6855 16.5879 61.6504 18.1895C60.6152 19.791 59.1895 21.0703 57.373 22.0273C59.4434 23.0234 61.084 24.4004 62.2949 26.1582C63.5059 27.8965 64.1113 29.9473 64.1113 32.3105C64.1113 36.0996 62.8223 39.0977 60.2441 41.3047C57.666 43.4922 54.1602 44.5859 49.7266 44.5859C45.293 44.5859 41.7773 43.4824 39.1797 41.2754C36.582 39.0684 35.2832 36.0801 35.2832 32.3105C35.2832 29.9473 35.8887 27.8867 37.0996 26.1289C38.3105 24.3711 39.9414 23.0039 41.9922 22.0273C40.1758 21.0703 38.75 19.791 37.7148 18.1895C36.6992 16.5879 36.1914 14.752 36.1914 12.6816C36.1914 9.04883 37.4023 6.1582 39.8242 4.00977C42.2461 1.8418 45.5371 0.757812 49.6973 0.757812C53.8379 0.757812 57.1191 1.83203 59.541 3.98047C61.9824 6.10938 63.2031 9.00977 63.2031 12.6816ZM55.6152 31.6953C55.6152 29.8398 55.0781 28.3555 54.0039 27.2422C52.9297 26.1289 51.4844 25.5723 49.668 25.5723C47.8711 25.5723 46.4355 26.1289 45.3613 27.2422C44.2871 28.3359 43.75 29.8203 43.75 31.6953C43.75 33.5117 44.2773 34.9766 45.332 36.0898C46.3867 37.2031 47.8516 37.7598 49.7266 37.7598C51.5625 37.7598 52.998 37.2227 54.0332 36.1484C55.0879 35.0742 55.6152 33.5898 55.6152 31.6953ZM54.7363 13.0918C54.7363 11.4316 54.2969 10.1035 53.418 9.10742C52.5391 8.0918 51.2988 7.58398 49.6973 7.58398C48.1152 7.58398 46.8848 8.07227 46.0059 9.04883C45.127 10.0254 44.6875 11.373 44.6875 13.0918C44.6875 14.791 45.127 16.1582 46.0059 17.1934C46.8848 18.2285 48.125 18.7461 49.7266 18.7461C51.3281 18.7461 52.5586 18.2285 53.418 17.1934C54.2969 16.1582 54.7363 14.791 54.7363 13.0918Z" fill="white"/>
</svg>
