<svg width="99" height="98" viewBox="0 0 99 98" fill="none" xmlns="http://www.w3.org/2000/svg">
<g clip-path="url(#clip0)">
<path d="M75.0547 0H69.3125V63.5469H63.2334L58.4337 24.963C57.8982 20.6619 54.2224 17.418 49.8878 17.418H17.6328V52.0625H0.214844V92.2578H9.01953C9.01953 85.924 14.1701 80.7734 20.5039 80.7734C26.8377 80.7734 31.9883 85.924 31.9883 92.2578H43.4727C43.4727 85.924 48.6232 80.7734 54.957 80.7734C61.2909 80.7734 66.4414 85.924 66.4414 92.2578H75.0547V80.7734H98.2148V75.0312H75.0547C75.0547 48.1645 75.0547 28.6296 75.0547 0ZM23.375 63.5469C23.375 54.9556 23.375 33.5704 23.375 23.1602H49.8878C51.3318 23.1602 52.557 24.2424 52.7365 25.6752L57.4472 63.5469H23.375Z" fill="white"/>
<path d="M20.5039 98C23.6752 98 26.2461 95.4291 26.2461 92.2578C26.2461 89.0865 23.6752 86.5156 20.5039 86.5156C17.3326 86.5156 14.7617 89.0865 14.7617 92.2578C14.7617 95.4291 17.3326 98 20.5039 98Z" fill="white"/>
<path d="M54.957 98C58.1284 98 60.6992 95.4291 60.6992 92.2578C60.6992 89.0865 58.1284 86.5156 54.957 86.5156C51.7857 86.5156 49.2148 89.0865 49.2148 92.2578C49.2148 95.4291 51.7857 98 54.957 98Z" fill="white"/>
</g>
<defs>
<clipPath id="clip0">
<rect width="98" height="98" fill="white" transform="translate(0.214844)"/>
</clipPath>
</defs>
</svg>
