<svg width="96" height="93" viewBox="0 0 96 93" fill="none" xmlns="http://www.w3.org/2000/svg">
<g clip-path="url(#clip0)">
<path d="M95.2868 58.1563C95.2868 54.9872 92.6006 52.3943 89.3175 52.3943C92.6006 52.3943 95.2868 49.8014 95.2868 46.6323C95.2868 43.4633 92.6006 40.8704 89.3175 40.8704H64.8435C68.4846 30.3258 68.4249 26.9648 68.4249 20.5114C68.4249 15.7172 64.3527 11.8684 59.471 11.8684H57.6802C56.546 11.8684 55.1134 12.7329 54.8147 14.058C51.8617 25.1557 47.2448 37.8903 35.5938 40.4697V82.1599L45.9204 85.4679C48.9648 86.4472 52.1287 86.966 55.3521 86.966H83.3482C86.645 86.9662 89.3175 84.3862 89.3175 81.2042C89.3175 78.0219 86.645 75.4422 83.3482 75.4422H89.3175C92.6006 75.4422 95.2868 72.8494 95.2868 69.6803C95.2868 66.5112 92.6006 63.9183 89.3175 63.9183C92.6006 63.9183 95.2868 61.3254 95.2868 58.1563Z" fill="white"/>
<path d="M15.4586 35.108L-3.56573 35.167C-6.1754 35.167 -8.14844 36.3966 -8.14844 37.989L-8.14844 89.8468C-8.14844 91.4393 -6.03671 92.7278 -3.42704 92.7278H15.4586C23.269 92.7278 29.6228 88.8508 29.6228 84.0849L29.6228 43.751C29.6228 38.9851 23.269 35.108 15.4586 35.108ZM15.4586 81.2039C12.8511 81.2039 10.7372 79.914 10.7372 78.3229C10.7372 76.7314 12.8511 75.4419 15.4586 75.4419C18.066 75.4419 20.18 76.7314 20.18 78.3229C20.18 79.914 18.066 81.2039 15.4586 81.2039Z" fill="white"/>
<path d="M46.8056 7.09404L42.5851 3.02013C41.4193 1.89482 39.5304 1.89482 38.3646 3.02013C37.1988 4.14545 37.1988 5.96873 38.3646 7.09404L42.5851 11.168C43.7509 12.2933 45.6396 12.2933 46.8056 11.168C47.9714 10.0426 47.9714 8.21936 46.8056 7.09404Z" fill="white"/>
<path d="M80.5751 3.02013C79.4093 1.89482 77.5204 1.89482 76.3546 3.02013L72.1341 7.09404C70.9683 8.21936 70.9683 10.0426 72.1341 11.168C73.2999 12.2933 75.1888 12.2933 76.3546 11.168L80.5751 7.09404C81.7409 5.96873 81.7409 4.14545 80.5751 3.02013Z" fill="white"/>
<path d="M59.471 -4.23315C57.7994 -4.23315 56.4863 -3.11462 56.4863 -1.69064V3.56389C56.4863 4.98787 57.7994 6.10641 59.471 6.10641C61.1426 6.10641 62.4556 4.98787 62.4556 3.56389V-1.69064C62.4556 -3.11462 61.1426 -4.23315 59.471 -4.23315Z" fill="white"/>
</g>
<defs>
<clipPath id="clip0">
<rect width="95.3103" height="92" fill="white" transform="translate(0.0839844 0.766602)"/>
</clipPath>
</defs>
</svg>
