<svg width="116" height="68" viewBox="0 0 116 68" fill="none" xmlns="http://www.w3.org/2000/svg">
<path d="M28.2916 5.93203C24.4581 2.09863 8.16658 1.14045 2.89568 0.661133C2.41659 0.661133 1.93727 0.661134 1.45818 1.14022C0.979091 1.61954 0.5 2.57795 0.5 3.05704V46.182C0.5 47.6195 1.45841 48.5779 2.8959 48.5779H17.2709C18.2293 48.5779 19.1875 48.0988 19.6668 47.1404C19.6668 45.7029 28.2918 20.307 29.2502 7.84885C29.25 7.36953 29.25 6.41135 28.2916 5.93203Z" fill="white"/>
<path d="M79.5624 17.4318C74.7708 15.9943 70.4583 14.0777 66.6249 12.6402C57.9999 8.80679 54.1665 10.7236 46.4999 18.3902C43.1458 21.7443 40.7499 26.5361 41.229 28.4527C41.229 28.9318 41.229 28.9318 42.1874 29.4111C44.5833 30.3695 47.9374 30.8486 51.2915 25.5777C51.7706 25.0986 52.2499 24.6193 53.2081 24.6193C54.6456 24.6193 55.1247 24.1402 56.5622 23.6609C57.5206 23.1818 58.4788 22.7025 59.9163 22.2234C60.3953 22.2234 60.3953 22.2234 60.8747 22.2234C61.3538 22.2234 62.3122 22.7025 62.7913 22.7025C65.1874 25.0986 69.4999 28.4527 73.8124 32.2861C80.5208 37.557 87.2289 43.307 90.5833 47.6195H91.0624C87.7083 38.0361 81.9583 21.7443 79.5624 17.4318Z" fill="white"/>
<path d="M113.103 5.45264C94.4154 5.45264 83.8739 10.2442 83.3945 10.2442C82.9154 10.7233 82.4361 11.2026 81.957 11.6817C81.957 12.1608 81.957 13.1192 82.4361 13.5983C85.3111 18.3899 94.8945 44.7442 96.332 51.4523C96.8111 52.4108 97.7695 53.3689 98.7279 53.3689H113.103C114.54 53.3689 115.499 52.4105 115.499 50.973V7.84809C115.499 6.41104 114.54 5.45264 113.103 5.45264Z" fill="white"/>
<path d="M87.2282 52.4113C85.3116 48.0988 77.1657 41.8697 69.9782 36.1198C66.145 32.7654 62.3116 29.8904 59.4366 27.4945C58.9576 27.9736 57.9991 27.9736 57.9991 28.4529C56.5616 28.932 56.0826 29.4114 54.1657 29.4114C50.3326 34.2029 45.5408 36.1195 40.2701 34.2029C37.8742 33.7239 36.4367 31.807 35.9576 29.8904C34.9992 25.0989 39.3117 18.3905 42.666 15.0364H33.0826C31.166 24.6198 27.8117 37.0779 25.416 43.7863C27.3326 45.7029 29.2494 48.0988 30.6869 49.0572C39.791 56.7238 50.3328 64.3906 52.2494 65.8281C53.6869 66.7865 56.5619 67.7447 57.9994 67.7447C58.4785 67.7447 58.9578 67.7447 59.4369 67.7447L51.7701 60.0779C50.8117 59.1195 50.8117 57.682 51.7701 56.7238C52.7285 55.7656 54.166 55.7654 55.1241 56.7238L64.7075 66.3072C65.666 67.2656 66.6241 66.7863 67.5825 66.7863C69.02 66.3072 69.4991 65.3488 69.9784 63.9113L58.9576 52.8904C57.9991 51.932 57.9991 50.4945 58.9576 49.5363C59.916 48.5781 61.3535 48.5779 62.3116 49.5363L74.2907 61.5154C74.7698 61.9945 76.6866 61.9945 78.1241 61.5154C78.6032 61.0363 79.5616 60.557 80.0407 59.5988L66.6241 46.182C65.6657 45.2236 65.6657 43.7861 66.6241 42.8279C67.5825 41.8697 69.02 41.8695 69.9782 42.8279L83.8741 56.7238C84.8325 57.2029 85.7907 56.7238 86.7491 56.2447C87.2282 55.7654 88.1866 54.3279 87.2282 52.4113Z" fill="white"/>
</svg>
