<svg xmlns="http://www.w3.org/2000/svg" xmlns:xlink="http://www.w3.org/1999/xlink" xmlns:bx="https://boxy-svg.com">
    <symbol id="icon-slider-next" viewBox="0 0 57 110">
        <path d="M2.45671 109.973C1.1484 109.976 0.0859427 108.907 0.0834998 107.587C0.0823893 106.95 0.332903 106.339 0.779519 105.89L51.2233 54.9879L0.779519 4.08622C-0.146803 3.1514 -0.146803 1.63588 0.779519 0.701055C1.70584 -0.233766 3.20759 -0.233766 4.13391 0.701055L56.2503 53.2955C57.175 54.229 57.175 55.7423 56.2503 56.676L4.13391 109.27C3.68974 109.72 3.08611 109.973 2.45671 109.973Z"/>
    </symbol>
    <symbol id="icon-slider-prev" viewBox="0 0 57 110">
        <path d="M54.5433 109.973C55.8516 109.976 56.9141 108.907 56.9165 107.587C56.9176 106.95 56.6671 106.339 56.2205 105.89L5.77666 54.9879L56.2205 4.08622C57.1468 3.1514 57.1468 1.63588 56.2205 0.701055C55.2942 -0.233766 53.7924 -0.233766 52.8661 0.701055L0.749737 53.2955C-0.175034 54.229 -0.175034 55.7423 0.749737 56.676L52.8661 109.27C53.3103 109.72 53.9139 109.973 54.5433 109.973Z"/>
    </symbol>
    <symbol id="icon-social-fb" viewBox="0 0 10 18">
        <path d="M9.36525 0.0037452L7.03106 0C4.40867 0 2.71396 1.73871 2.71396 4.42982V6.47227H0.36703C0.164227 6.47227 0 6.63668 0 6.83949V9.79876C0 10.0016 0.164415 10.1658 0.36703 10.1658H2.71396V17.633C2.71396 17.8358 2.87819 18 3.08099 18H6.14307C6.34587 18 6.5101 17.8356 6.5101 17.633V10.1658H9.25421C9.45701 10.1658 9.62124 10.0016 9.62124 9.79876L9.62236 6.83949C9.62236 6.74211 9.5836 6.64886 9.51487 6.57994C9.44615 6.51103 9.35252 6.47227 9.25514 6.47227H6.5101V4.74086C6.5101 3.90868 6.70841 3.48622 7.79246 3.48622L9.36488 3.48566C9.56749 3.48566 9.73172 3.32124 9.73172 3.11863V0.370775C9.73172 0.168347 9.56768 0.00411972 9.36525 0.0037452Z"/>
    </symbol>
    <symbol id="icon-social-inst" viewBox="0 0 16 16">
        <path d="M4.66667 0.5C2.36523 0.5 0.5 2.36523 0.5 4.66667V11.3333C0.5 13.6348 2.36523 15.5 4.66667 15.5H11.3333C13.6348 15.5 15.5 13.6348 15.5 11.3333V4.66667C15.5 2.36523 13.6348 0.5 11.3333 0.5H4.66667ZM13 2.16667C13.459 2.16667 13.8333 2.54102 13.8333 3C13.8333 3.45898 13.459 3.83333 13 3.83333C12.541 3.83333 12.1667 3.45898 12.1667 3C12.1667 2.54102 12.541 2.16667 13 2.16667ZM8 3.83333C10.3014 3.83333 12.1667 5.69857 12.1667 8C12.1667 10.3014 10.3014 12.1667 8 12.1667C5.69857 12.1667 3.83333 10.3014 3.83333 8C3.83333 5.69857 5.69857 3.83333 8 3.83333ZM8 5.5C6.61979 5.5 5.5 6.61979 5.5 8C5.5 9.38021 6.61979 10.5 8 10.5C9.38021 10.5 10.5 9.38021 10.5 8C10.5 6.61979 9.38021 5.5 8 5.5Z"/>
    </symbol>
    <symbol id="icon-social-ytb" viewBox="0 0 18 13">
        <path d="M17.2984 1.06582C16.6487 0.308796 15.449 0 13.1581 0H4.84177C2.49834 0 1.27841 0.328715 0.631104 1.13468C0 1.9205 0 3.07834 0 4.68083V7.73516C0 10.8397 0.7488 12.4159 4.84177 12.4159H13.1581C15.1448 12.4159 16.2458 12.1435 16.958 11.4754C17.6884 10.7903 18 9.67172 18 7.73516V4.68083C18 2.99087 17.9512 1.8262 17.2984 1.06582ZM11.5561 6.62967L7.77966 8.56411C7.69524 8.60736 7.60291 8.62882 7.5107 8.62882C7.4063 8.62882 7.30214 8.60127 7.20987 8.54653C7.03614 8.44335 6.93006 8.25879 6.93006 8.05971V4.20323C6.93006 4.0045 7.03585 3.82011 7.20924 3.71688C7.38267 3.61365 7.59838 3.60659 7.77832 3.69821L11.5548 5.62019C11.7469 5.71797 11.8675 5.91237 11.8678 6.12448C11.8681 6.33676 11.7479 6.53144 11.5561 6.62967Z"/>
    </symbol>
    <symbol id="icon-search" viewBox="0 0 15 15">
        <g clip-path="url(#clip0)">
            <path d="M6.60568 0C2.96341 0 0 2.96341 0 6.60568C0 10.2482 2.96341 13.2114 6.60568 13.2114C10.2482 13.2114 13.2114 10.2482 13.2114 6.60568C13.2114 2.96341 10.2482 0 6.60568 0ZM6.60568 11.9919C3.63577 11.9919 1.21951 9.57562 1.21951 6.60571C1.21951 3.6358 3.63577 1.21951 6.60568 1.21951C9.57559 1.21951 11.9919 3.63577 11.9919 6.60568C11.9919 9.57559 9.57559 11.9919 6.60568 11.9919Z"/>
            <path d="M14.8215 13.9592L11.3255 10.4632C11.0873 10.225 10.7015 10.225 10.4633 10.4632C10.2251 10.7012 10.2251 11.0874 10.4633 11.3254L13.9593 14.8214C14.0784 14.9405 14.2343 15 14.3904 15C14.5463 15 14.7024 14.9405 14.8215 14.8214C15.0597 14.5834 15.0597 14.1972 14.8215 13.9592Z"/>
        </g>
        <defs>
            <clipPath id="clip0">
                <rect width="15" height="15" fill="white"/>
            </clipPath>
        </defs>
    </symbol>
    <symbol id="icon-why-1" viewBox="0 0 151 88">
        <path d="M36.5599 7.34628C31.5598 2.34619 10.3099 1.09639 3.43486 0.471191C2.80996 0.471191 2.18476 0.471192 1.55986 1.09609C0.93496 1.72129 0.310059 2.97138 0.310059 3.59629V59.8462C0.310059 61.7212 1.56015 62.9713 3.43515 62.9713H22.1851C23.4352 62.9713 24.685 62.3464 25.3102 61.0963C25.3102 59.2213 36.5602 26.0963 37.8103 9.84647C37.81 9.22128 37.81 7.97147 36.5599 7.34628Z" fill="white"/>
        <path d="M103.435 22.3461C97.1852 20.4711 91.5602 17.9712 86.5601 16.0962C75.3101 11.0961 70.3101 13.5963 60.3102 23.5962C55.9353 27.9711 52.8102 34.2213 53.4351 36.7212C53.4351 37.3461 53.4351 37.3461 54.6852 37.9713C57.8103 39.2214 62.1852 39.8463 66.5601 32.9712C67.185 32.3463 67.8102 31.7211 69.06 31.7211C70.935 31.7211 71.5599 31.0962 73.4349 30.471C74.685 29.8461 75.9348 29.2209 77.8098 28.596C78.4347 28.596 78.4347 28.596 79.0599 28.596C79.6848 28.596 80.9348 29.2209 81.5598 29.2209C84.6851 32.3463 90.3101 36.7212 95.9351 41.7213C104.685 48.5964 113.435 56.0964 117.81 61.7214H118.435C114.06 49.2213 106.56 27.9711 103.435 22.3461Z" fill="white"/>
        <path d="M147.185 6.72119C122.81 6.72119 109.06 12.9711 108.435 12.9711C107.81 13.596 107.184 14.2212 106.56 14.8461C106.56 15.471 106.56 16.7211 107.184 17.346C110.934 23.5959 123.435 57.971 125.31 66.7208C125.934 67.9709 127.185 69.2207 128.435 69.2207H147.185C149.06 69.2207 150.31 67.9706 150.31 66.0956V9.8457C150.31 7.97129 149.06 6.72119 147.185 6.72119Z" fill="white"/>
        <path d="M113.435 67.9716C110.935 62.3466 100.31 54.2217 90.9347 46.7217C85.9349 42.3465 80.9348 38.5966 77.1848 35.4715C76.5599 36.0964 75.3098 36.0964 75.3098 36.7216C73.4348 37.3465 72.8099 37.9717 70.3097 37.9717C65.3099 44.2216 59.0597 46.7214 52.1849 44.2215C49.0598 43.5966 47.1848 41.0965 46.5599 38.5966C45.3098 32.3467 50.9348 23.5966 55.31 19.2217H42.8099C40.31 31.7218 35.9349 47.9715 32.8101 56.7216C35.31 59.2215 37.8101 62.3466 39.6851 63.5967C51.56 73.5966 65.3102 83.5968 67.8101 85.4718C69.6851 86.7219 73.4351 87.9717 75.3101 87.9717C75.935 87.9717 76.5602 87.9717 77.1851 87.9717L67.1849 77.9715C65.9348 76.7214 65.9348 74.8464 67.1849 73.5966C68.435 72.3468 70.31 72.3465 71.5598 73.5966L84.0599 86.0967C85.31 87.3468 86.5598 86.7216 87.8099 86.7216C89.6849 86.0967 90.3098 84.8466 90.935 82.9716L76.5599 68.5965C75.3098 67.3464 75.3098 65.4714 76.5599 64.2216C77.81 62.9718 79.685 62.9715 80.9348 64.2216L96.5597 79.8465C97.1846 80.4714 99.6848 80.4714 101.56 79.8465C102.185 79.2216 103.435 78.5964 104.06 77.3466L86.5598 59.8464C85.3097 58.5963 85.3097 56.7213 86.5598 55.4715C87.8099 54.2217 89.6849 54.2214 90.9347 55.4715L109.06 73.5966C110.31 74.2215 111.56 73.5966 112.81 72.9717C113.435 72.3465 114.685 70.4715 113.435 67.9716Z" fill="white"/>
    </symbol>
    <symbol id="icon-why-2" viewBox="0 0 96 93">
        <g clip-path="url(#clip0)">
            <path d="M95.2853 58.1561C95.2853 54.987 92.5991 52.3941 89.316 52.3941C92.5991 52.3941 95.2853 49.8012 95.2853 46.6321C95.2853 43.463 92.5991 40.8701 89.316 40.8701H64.8421C68.4832 30.3255 68.4235 26.9645 68.4235 20.5111C68.4235 15.717 64.3512 11.8682 59.4695 11.8682H57.6787C56.5445 11.8682 55.1119 12.7327 54.8132 14.0577C51.8602 25.1555 47.2434 37.89 35.5923 40.4695V82.1597L45.919 85.4677C48.9633 86.447 52.1273 86.9658 55.3507 86.9658H83.3467C86.6436 86.966 89.316 84.3859 89.316 81.204C89.316 78.0216 86.6436 75.442 83.3467 75.442H89.316C92.5991 75.442 95.2853 72.8491 95.2853 69.68C95.2853 66.5109 92.5991 63.918 89.316 63.918C92.5991 63.918 95.2853 61.3251 95.2853 58.1561Z" fill="white"/>
            <path d="M15.4581 35.1079L-3.56622 35.1669C-6.17589 35.1669 -8.14893 36.3965 -8.14893 37.9889L-8.14893 89.8467C-8.14893 91.4391 -6.0372 92.7277 -3.42753 92.7277H15.4581C23.2685 92.7277 29.6223 88.8507 29.6223 84.0847L29.6223 43.7509C29.6223 38.985 23.2685 35.1079 15.4581 35.1079ZM15.4581 81.2038C12.8506 81.2038 10.7367 79.9138 10.7367 78.3228C10.7367 76.7313 12.8506 75.4418 15.4581 75.4418C18.0655 75.4418 20.1795 76.7313 20.1795 78.3228C20.1795 79.9138 18.0655 81.2038 15.4581 81.2038Z" fill="white"/>
            <path d="M46.8056 7.09368L42.5851 3.01977C41.4193 1.89445 39.5304 1.89445 38.3646 3.01977C37.1988 4.14508 37.1988 5.96836 38.3646 7.09368L42.5851 11.1676C43.7509 12.2929 45.6396 12.2929 46.8056 11.1676C47.9714 10.0423 47.9714 8.21899 46.8056 7.09368Z" fill="white"/>
            <path d="M80.5751 3.01977C79.4093 1.89445 77.5204 1.89445 76.3546 3.01977L72.1341 7.09368C70.9683 8.21899 70.9683 10.0423 72.1341 11.1676C73.2999 12.2929 75.1888 12.2929 76.3546 11.1676L80.5751 7.09368C81.7409 5.96836 81.7409 4.14508 80.5751 3.01977Z" fill="white"/>
            <path d="M59.47 -4.2334C57.7984 -4.2334 56.4854 -3.11486 56.4854 -1.69088V3.56365C56.4854 4.98762 57.7984 6.10616 59.47 6.10616C61.1416 6.10616 62.4547 4.98762 62.4547 3.56365V-1.69088C62.4547 -3.11486 61.1416 -4.2334 59.47 -4.2334Z" fill="white"/>
        </g>
        <defs>
            <clipPath id="clip0">
                <rect width="95.3103" height="92" fill="white" transform="translate(0.0839844 0.766602)"/>
            </clipPath>
        </defs>
    </symbol>
    <symbol id="icon-why-3" viewBox="0 0 99 98">
        <g clip-path="url(#clip0)">
            <path d="M75.0547 0H69.3125V63.5469H63.2334L58.4337 24.963C57.8982 20.6619 54.2224 17.418 49.8878 17.418H17.6328V52.0625H0.214844V92.2578H9.01953C9.01953 85.924 14.1701 80.7734 20.5039 80.7734C26.8377 80.7734 31.9883 85.924 31.9883 92.2578H43.4727C43.4727 85.924 48.6232 80.7734 54.957 80.7734C61.2909 80.7734 66.4414 85.924 66.4414 92.2578H75.0547V80.7734H98.2148V75.0312H75.0547C75.0547 48.1645 75.0547 28.6296 75.0547 0ZM23.375 63.5469C23.375 54.9556 23.375 33.5704 23.375 23.1602H49.8878C51.3318 23.1602 52.557 24.2424 52.7365 25.6752L57.4472 63.5469H23.375Z" fill="white"/>
            <path d="M20.5039 98C23.6752 98 26.2461 95.4291 26.2461 92.2578C26.2461 89.0865 23.6752 86.5156 20.5039 86.5156C17.3326 86.5156 14.7617 89.0865 14.7617 92.2578C14.7617 95.4291 17.3326 98 20.5039 98Z" fill="white"/>
            <path d="M54.957 98C58.1284 98 60.6992 95.4291 60.6992 92.2578C60.6992 89.0865 58.1284 86.5156 54.957 86.5156C51.7857 86.5156 49.2148 89.0865 49.2148 92.2578C49.2148 95.4291 51.7857 98 54.957 98Z" fill="white"/>
        </g>
        <defs>
            <clipPath id="clip0">
                <rect width="98" height="98" fill="white" transform="translate(0.214844)"/>
            </clipPath>
        </defs>
    </symbol>
    <symbol id="icon-else-arrow" viewBox="0 0 30 9">
        <path d="M29.2409 4.70316C29.4361 4.5079 29.4361 4.19132 29.2409 3.99606L26.0589 0.814075C25.8636 0.618813 25.547 0.618813 25.3518 0.814075C25.1565 1.00934 25.1565 1.32592 25.3518 1.52118L28.1802 4.34961L25.3518 7.17804C25.1565 7.3733 25.1565 7.68988 25.3518 7.88514C25.547 8.08041 25.8636 8.08041 26.0589 7.88514L29.2409 4.70316ZM0.924316 4.84961H28.8873V3.84961H0.924316V4.84961Z" fill="#FFBE43"/>
    </symbol>
    <symbol id="icon-projects-prev" viewBox="0 0 31 58">
        <path d="M29.1188 57.9858C29.803 57.9871 30.3586 57.4237 30.3599 56.7275C30.3604 56.3919 30.2294 56.0699 29.9959 55.8328L3.61701 28.9936L29.9959 2.15459C30.4803 1.66168 30.4803 0.862585 29.9959 0.369679C29.5115 -0.123226 28.7262 -0.123226 28.2418 0.369679L0.988249 28.1013C0.504656 28.5935 0.504656 29.3914 0.988249 29.8837L28.2418 57.6153C28.474 57.8524 28.7897 57.9858 29.1188 57.9858Z"/>
    </symbol>
    <symbol id="icon-projects-next" viewBox="0 0 31 58">
        <path d="M1.88118 57.9858C1.19701 57.9871 0.641416 57.4237 0.640139 56.7275C0.639558 56.3919 0.770561 56.0699 1.00411 55.8328L27.383 28.9936L1.00411 2.15459C0.519705 1.66168 0.519705 0.862585 1.00411 0.369679C1.48852 -0.123226 2.27384 -0.123226 2.75824 0.369679L30.0118 28.1013C30.4953 28.5935 30.4953 29.3914 30.0118 29.8837L2.75824 57.6153C2.52597 57.8524 2.21031 57.9858 1.88118 57.9858Z"/>
    </symbol>
    <symbol id="icon-select-arrow" fill="none" viewBox="0 0 21 13">
        <path d="M2 2L10.5 10L19 2" stroke="#202020" stroke-width="3" stroke-linecap="round"/>
    </symbol>
    <symbol id="icon-close" viewBox="0 0 43 43">
        <g clip-path="url(#clip0)">
            <path d="M29.6984 10.6064L21.2133 19.0915L12.7279 10.6062C12.1426 10.0208 11.1921 10.0208 10.6065 10.6064C10.0212 11.1917 10.0212 12.1422 10.6065 12.7275L19.0919 21.2129L10.6065 29.6982C10.0212 30.2836 10.0212 31.2341 10.6065 31.8194C11.1921 32.405 12.1426 32.405 12.7279 31.8196L21.2133 23.3343L29.6984 31.8194C30.284 32.405 31.2345 32.405 31.8198 31.8196C32.4054 31.2341 32.4054 30.2836 31.8198 29.698L23.3347 21.2129L31.8198 12.7277C32.4054 12.1422 32.4054 11.1917 31.8198 10.6062C31.2345 10.0208 30.284 10.0208 29.6984 10.6064Z"/>
        </g>
        <defs>
            <clipPath id="clip0">
                <rect width="30" height="30" fill="white" transform="translate(0 21.2129) rotate(-45)"/>
            </clipPath>
        </defs>
    </symbol>
    <symbol id="iconalleryext" viewBox="0 0 45 17">

    </symbol>
</svg>