<svg width="26" height="26" viewBox="0 0 26 26" fill="none" xmlns="http://www.w3.org/2000/svg">
<path d="M18.1115 6.46839L12.9369 11.643L7.7621 6.46827C7.40513 6.11129 6.82548 6.11129 6.46838 6.46839C6.1114 6.82537 6.1114 7.40501 6.46838 7.76199L11.6432 12.9368L6.46838 18.1115C6.1114 18.4685 6.1114 19.0482 6.46838 19.4051C6.82548 19.7622 7.40513 19.7622 7.7621 19.4053L12.9369 14.2305L18.1115 19.4051C18.4686 19.7622 19.0483 19.7622 19.4053 19.4053C19.7624 19.0482 19.7624 18.4685 19.4053 18.1114L14.2306 12.9368L19.4053 7.76211C19.7624 7.40501 19.7624 6.82537 19.4053 6.46827C19.0483 6.11129 18.4686 6.11129 18.1115 6.46839Z" fill="#BEBEBE"/>
</svg>
