<svg width="1920" height="431" viewBox="0 0 1920 431" fill="none" xmlns="http://www.w3.org/2000/svg">
<rect width="1921" height="389" fill="#2999E9"/>
<mask id="mask0" mask-type="alpha" maskUnits="userSpaceOnUse" x="0" y="0" width="1920" height="431">
<rect width="1920" height="431" fill="url(#paint0_linear)"/>
</mask>
<g mask="url(#mask0)">
<rect width="2047.35" height="658.714" transform="matrix(0.866025 0.5 0.5 -0.866025 -676.094 82.2288)" fill="white"/>
<rect width="2047.35" height="967.288" transform="matrix(-0.260113 0.965578 0.965578 0.260113 854.76 -1071.6)" fill="#0070C0"/>
<rect width="2047.35" height="607.902" transform="matrix(0.230622 0.973043 0.973043 -0.230622 993.783 -896.666)" fill="#0070C0"/>
<path fill-rule="evenodd" clip-rule="evenodd" d="M483.868 -980.911L451 -980.328L665.154 1065.12L701.829 1064.47L1686.11 -438.962L1642.82 -852.447L483.868 -980.911Z" fill="#2999E9"/>
<path fill-rule="evenodd" clip-rule="evenodd" d="M271.297 452.874L1173.32 973.656L1426.32 535.44L355.85 -82.5969L271.297 452.874Z" fill="#003190"/>
</g>
<defs>
<linearGradient id="paint0_linear" x1="960" y1="0" x2="960" y2="431" gradientUnits="userSpaceOnUse">
<stop stop-color="#006CAE"/>
<stop offset="0.46875" stop-color="#1A6EAF"/>
<stop offset="1" stop-color="#116FB7"/>
<stop offset="1" stop-color="#1070B7"/>
</linearGradient>
</defs>
</svg>
